Patient4_TMGait_0pt4_01_right_33_EMG.mot
version=1
nRows=40
nColumns=33
inDegrees=no
endheader
time	1LAddLong	2LGlutMax	3LGlutMed	4LIliopsoas	5LSemiMemb	6LBicFemLong	7LRecFem	8LVastMed	9LVastLat	10LGasMed	11LTibAnt	12lTibPost	13LPeroneusLong	14LSol	15LExtDigLong	16LFlexDigLong	17RAddLong	18RGlutMax	19RGlutMed	20RIliopsoas	21RSemiMemb	22RBicFemLong	23RRecFem	24RVastMed	25RVastLat	26RGasMed	27RTibAnt	28RTibPost	29RPeroneusLong	30RSol	31RExtDigLong	32RFlexDigLong
42.85	-0.001373	0.075226	0.12665	0.014648	0.005341	-0.029449	-0.019226	0.004883	0.028687	-0.050507	-0.027008	0.00412	0.55588	0.18295	0.090027	-0.00412	0.21774	0.10712	-0.3598	0.12131	0.042267	-0.028992	0.20783	-0.1358	-0.028687	-0.005493	0.13489	-0.00946	0.083313	0.041199	-0.007019	-0.018463
42.851	0.005951	0.088348	0.043335	-0.00885	-0.004272	-0.037537	-0.01236	0.003815	0.057831	-0.10376	-0.055084	0.003815	-0.12726	0.2182	0.007935	0.00412	0.13718	0.074768	-0.32562	0.02533	0.04425	-0.056458	0.23315	-0.11978	-0.014038	-0.00412	-0.061951	-0.014343	-0.13947	-0.018921	0.001984	-0.020752
42.852	0.010376	0.099487	0.001221	-0.015869	-0.003662	-0.055542	-0.005035	-0.001984	0.055695	-0.089111	0.022736	0.006104	-0.36255	0.089569	0.075684	0.001526	0.022736	0.074005	-0.2005	-0.026855	0.066223	-0.041199	0.15854	-0.10437	-0.00473	-0.004883	-0.18188	-0.007019	-0.20981	-0.046997	-0.000916	-0.016174
42.853	0.014343	0.096893	-0.018768	0.008392	0.014038	0.005951	0.050812	0.006256	0.091858	0.049438	0.21957	0.008087	-0.32166	0.092468	-0.099182	0.010223	-0.077972	0.074921	-0.18112	-0.007324	0.081635	-0.014191	0.1506	-0.11673	-0.006714	0.002441	-0.16357	-0.008698	-0.097198	-0.047913	0	-0.013428
42.854	0.016632	0.1033	0.037537	-0.005951	0.002747	0.027618	0.12039	0.011292	0.086212	0.080872	0.12787	0.000305	0.064545	0.26977	-0.099487	0.000458	-0.1619	0.097809	-0.20523	-0.054932	0.073547	0.008087	0.10544	-0.037689	-0.005646	-0.000305	0.177	-0.01297	-0.011902	-0.058746	-0.003967	-0.015869
42.855	0.007477	0.11505	0.094604	0.002747	0.002594	0.031433	0.085602	0.006409	0.066071	0.11841	0.10941	0.005341	-0.25131	0.103	-0.19226	-0.007172	-0.16113	0.066986	-0.31952	-0.052795	0.11185	0.019836	-0.001984	-0.020599	-0.004883	-0.021973	0.074615	-0.008087	-0.09201	-0.074463	-0.000153	-0.007172
42.856	0.008545	0.11017	0.10086	0.001221	0.005035	0.017853	-0.01297	0.009918	0.022888	0.14069	0.003967	0.005188	-0.024567	-0.079346	0.096741	-0.000916	-0.10788	0.095062	-0.33142	-0.087738	0.13397	0.020294	0.008087	0.007935	-0.008698	-0.010681	0.0383	-0.008087	-0.097656	-0.075989	-0.002136	-0.016937
42.857	0.009613	0.10086	0.076904	0.010376	0.001221	0.006256	-0.004578	0.007324	0.017853	-0.001831	-0.052032	0.002594	-0.26733	-0.12177	-0.23102	-0.004272	-0.081177	0.10437	0.006256	-0.16907	0.1265	0.012054	0.022278	-0.01358	-0.011902	-0.010834	-0.22171	-0.007782	-0.036621	-0.069885	0.00061	-0.01358
42.858	-0.000305	0.11673	0.016174	-0.006104	0.000305	0.019836	0.023041	0.003052	0.015259	-0.14435	0.10986	0.000153	0.018311	-0.070648	-0.049286	-0.003967	-0.058289	0.062408	0.3949	-0.14603	0.089111	0.017395	-0.070343	-0.081787	0.003815	0.00473	-0.16007	-0.007172	-0.059204	-0.028687	-0.008698	-0.014954
42.859	0.012665	0.076599	-0.00351	0.010376	-0.001068	0.024567	0.003204	0.00473	0.00946	-0.13641	0.22385	0.003357	0.073853	-0.013275	-0.27222	0.010681	-0.04425	0.027924	-0.23514	-0.062408	0.034637	-0.013885	0.0354	-0.023346	-0.01236	-0.012817	0.046234	-0.007477	-0.070038	0.00473	0.000153	-0.019073
42.86	-0.00351	0.077667	0.098572	0.017395	0.00885	0.028381	0.018005	0.006714	0.028839	-0.13275	0.22201	0.00412	0.075226	0.014496	0.008545	-0.007019	-0.021973	0.006866	0.021057	-0.017242	0.055847	-0.016785	0.14191	-0.066223	-0.004883	-0.016937	-0.20386	-0.006866	-0.02243	0.045929	-0.00351	-0.011444
42.861	-0.005951	0.074005	0.016632	0.014191	0.021515	0.012054	0.015869	-0.006866	0.052338	-0.13809	-0.16007	0.00412	0.15396	0.022736	0.15045	0.009308	-0.012817	0.005188	0.10696	0.032959	0.071411	-0.048218	0.17059	-0.098114	-0.014954	-0.007935	-0.52856	-0.011139	0.12238	-0.067902	-0.000153	-0.006714
42.862	-0.006866	0.11108	-0.043793	-0.007324	0.004578	0.040588	0.022736	0.004578	0.032196	-0.044556	-0.21194	0.006409	0.10178	-0.044861	0.066833	-0.004425	-0.004883	0.043488	-0.11551	0.010834	0.070038	-0.046997	0.16022	-0.078888	-0.011444	0.001678	-0.68573	-0.007629	0.18509	-0.084839	0.000305	-0.010376
42.863	-0.002441	0.092316	-0.076599	-0.018005	-0.007477	0.05722	0.059509	-0.004883	-0.003662	0.043945	-0.20065	-0.003967	0.026245	-0.11047	0.15518	0.007019	0.006714	0.06134	-0.10346	0.014343	0.056152	-0.032959	0.18753	0.001984	0.011444	-0.010834	-0.62805	-0.00824	0.16312	0.003967	0	-0.00061
42.864	0.00061	0.10208	0.031891	-0.015869	-0.037537	0.06012	0.076447	0.001831	-0.062866	0.025635	-0.084076	0.00412	-0.011292	-0.057068	-0.10056	-0.001678	0.016632	0.027924	-0.11459	0.027618	0.054169	-0.017242	0.10284	-0.041962	-0.014191	-0.009613	-0.34912	-0.003662	0.027161	-0.000763	-0.001221	-0.011139
42.865	0.007172	0.077209	0.066223	0.001221	-0.1004	0.025482	0.067902	-0.003052	-0.097351	-0.00946	-0.041656	-0.001068	-0.019073	-0.083008	-0.38605	-0.014191	0.059509	-0.00885	-0.063171	0.055847	0.041351	-0.035248	0.10819	-0.087128	-0.015106	-0.005493	0.12009	-0.007782	-0.11551	-0.0383	-0.002441	-0.00946
42.866	0.018463	0.086365	0.12421	0.027008	-0.0177	-0.05661	0.02182	0.001068	-0.052338	-0.046997	-0.051422	0.006866	0.023651	-0.09491	0.345	-0.006866	0.055695	0.037079	-0.090179	0.014038	0.071259	-0.035248	0.032806	-0.083313	-0.02121	0.001221	0.61371	-0.007324	-0.19486	-0.063629	-0.00061	-0.011902
42.867	0.013885	0.097504	0.083923	0.020447	0.042725	-0.056458	-0.027924	-0.005798	0.083466	-0.071106	-0.028229	0.012512	0.023041	-0.072174	0.034637	0.005951	0.059204	0.006714	-0.10056	-0.090179	0.099182	-0.034485	0.009155	-0.11643	-0.009766	-0.027313	0.54794	-0.012512	-0.24262	-0.01236	-0.004883	-0.011597
42.868	0.015717	0.11215	0.032959	0.006714	0.041046	-0.030212	-0.021973	-0.009003	0.090179	-0.046387	-0.049744	0.006561	0.004425	-0.045013	0.10635	0.000916	0.031586	-0.000458	-0.02594	-0.11108	0.11749	-0.037537	0.03418	-0.089874	-0.023346	-0.023804	0.15396	-0.006714	-0.33493	0.047607	-0.000458	-0.00824
42.869	0.00351	0.13992	0.056763	0.011444	0.027313	-0.003815	0.000916	0.001068	0.059509	-0.018921	-0.037079	-0.000458	0.026855	-0.00946	-0.12543	0.006104	0.004578	0.008392	0.074005	0.030212	0.11734	-0.024872	0.031128	-0.06134	-0.015869	-0.017242	-0.44418	-0.005951	-0.1712	0.026703	-0.001221	-0.007019
42.87	0.010071	0.13168	-0.058136	0	0.020294	-0.022583	0.028839	-0.007324	0.053864	0.017853	-0.041962	-0.000305	0.04303	-0.027924	0.45319	0.002899	-0.021973	0.048828	0.18494	0.088348	0.060425	0.025482	0.044556	-0.097198	-0.00885	-0.016174	-0.85739	-0.006866	0.68619	-0.020142	-0.002441	-0.011292
42.871	0.009308	0.072937	-0.10635	0.015259	0.027618	-0.023804	0.061646	-0.003052	0.069885	0.011749	-0.028076	0.003052	0.047913	-0.029449	-0.13489	-0.003967	-0.039673	-0.019989	0.11917	0.06073	-0.049896	0.050049	0.036011	-0.059967	-0.014343	-0.039215	-0.077362	-0.005951	0.83618	-0.039978	-0.000458	-0.011292
42.872	0.002441	0.093536	0.034943	-0.002747	0.010376	-0.014496	0.050201	-0.002289	0.066833	0.042267	0.001221	0.001831	0.060577	-0.012817	-0.10635	0.007477	-0.018005	-0.077057	0.082397	-0.010071	-0.032196	0.05249	0.060272	-0.052032	0.000305	-0.028992	-0.53574	-0.006409	0.26337	-0.081024	0.000305	-0.007782
42.873	0.001221	0.075226	0.10742	0.016937	0.015564	-0.009766	0.06424	0.008698	0.066986	0.11841	0.079498	0.00061	0.064697	-0.050964	-0.13596	-0.002747	-0.01358	-0.045624	-0.25681	0.035553	0.007477	0.047607	0.036926	-0.050049	0.010681	-0.032806	0.03891	-0.002289	0.062866	-0.046997	-0.000458	-0.004578
42.874	0.001221	0.12466	0.078735	0.007172	0.011749	-0.033875	0.10162	-0.000916	0.067902	0.1503	0.11795	0.006866	-0.008087	-0.014954	-0.11414	-0.005493	-0.019531	-0.01236	0.1358	-0.046387	-0.048828	-0.007172	0.017548	-0.042725	0.010223	-0.036926	0.17929	-0.011444	-0.11551	0.068512	-0.006256	-0.016785
42.875	0.000916	0.12558	0.080872	-0.001221	-0.000305	-0.020599	0.10452	0.001373	0.066833	0.15671	0.02182	0.002594	-0.1181	-0.049896	-0.12253	0.003357	-0.018921	-0.042572	0.2829	-0.040588	0.032959	-0.005798	0.006409	-0.067596	0.002747	-0.054169	0.18997	-0.006866	-0.21668	0.087738	0.000458	-0.004272
42.876	-0.00351	0.14755	0.050659	-0.016327	-0.020447	-0.022888	0.084534	0.00351	0.032959	0.12054	0.024414	0.001526	-0.11169	-0.091095	-0.00412	0.003052	-0.012817	-0.055695	-0.17197	-0.037994	0.11429	-0.019684	0.014954	-0.046844	0.001678	-0.038757	-0.063782	-0.006256	-0.066223	0.025635	-0.002136	-0.003204
42.877	-0.001068	0.12955	0.042572	-0.017853	-0.062408	-0.011749	0.050201	0.007629	0.019684	-0.079956	0.027618	0.002289	0.21591	-0.029755	0.031433	0.005188	-0.007782	-0.036163	-0.38132	-0.018005	0.080719	-0.033569	0.03479	-0.051727	-0.010986	-0.037842	-0.22339	-0.005798	0.081635	-0.014343	-0.002136	-0.001984
42.878	0.0177	0.13184	-0.011292	-0.017395	-0.084381	-0.032959	0.012207	0.003967	0.042572	-0.09613	0.019989	0.004883	0.1033	-0.06073	-0.012207	0.010529	-0.000916	-0.077667	-0.35004	-0.021515	0.085144	-0.014648	0.043945	-0.079193	-0.01236	-0.037384	-0.32928	-0.006561	0.2533	-0.066681	0.001373	-0.003815
42.879	0.014801	0.12344	-0.037231	0.02594	-0.039978	-0.036774	0.020294	0.00412	0.035553	-0.033569	-0.019836	0.005798	0.041809	0.002136	0.041504	-0.004883	0.003052	-0.051575	-0.14206	0.003357	0.07019	0.00061	0.022583	-0.070801	-0.00351	-0.049896	0.059357	-0.009003	0.047455	-0.12466	0.004883	-0.000305
42.88	0.010986	0.1503	0.038605	0.04715	0.066986	-0.054626	0.028534	-0.002899	0.046234	-0.025482	-0.014648	0.005951	0.3891	0.054169	0.084991	0.009003	-0.002289	-0.030823	-0.050812	0.000305	0.019226	0.032349	0.039978	-0.098114	-0.014954	-0.049286	0.59311	-0.006256	-0.12039	-0.13718	0.00061	0.001831
42.881	0.013275	0.14053	0.045471	0.034332	0.11307	-0.019684	0.07309	-0.002136	0.010223	-0.044098	0.030975	0.000153	0.041351	0.068207	0.14481	0.001678	-0.011597	-0.024261	-0.019989	0.031891	-0.13016	0.085907	0.062256	-0.050812	0.000916	-0.0354	0.55283	-0.006409	-0.12573	-0.14999	0.002441	-0.003815
42.882	0.002594	0.17105	0.063782	0.002136	0.063629	0.004425	0.089111	0.006256	-0.02594	-0.042419	0.050201	0.001831	-0.40619	0.094147	0.11948	-0.007019	-0.010681	-0.06897	-0.1973	0.034943	-0.17975	0.07309	0.023804	-0.039825	-0.001831	-0.058746	0.17822	-0.005951	-0.037537	-0.13779	-0.002899	0.001068
42.883	0.004425	0.19073	0.03479	-0.006714	0.035095	0.012512	0.081787	0.007019	-0.040894	-0.00885	0.099487	-0.000305	-0.13962	0.12192	0.018463	-0.005493	0.00061	-0.052032	-0.19867	-0.018463	-0.064392	0.054169	-0.013275	-0.050354	-0.022736	-0.063477	-0.19073	-0.00946	0.020599	-0.007782	-0.004578	-0.007019
42.884	0.007782	0.15656	-0.050507	-0.015717	0.004272	0.00412	0.14069	0.003204	-0.067596	-0.024414	0.13351	0.006104	0.2446	0.096741	-0.14557	0.00351	0.001373	-0.094757	-0.15976	-0.089569	0.12802	0.056458	0.017853	-0.070648	-0.009155	-0.069885	-0.27741	-0.006561	0.065308	0.11002	-0.002594	-0.00885
42.885	0.003815	0.1709	-0.011139	-0.027466	-0.000153	0.007172	0.19562	0.005798	-0.091705	-0.020905	0.082245	0.000458	0.36758	0.056458	0.44632	0.016174	0.012512	-0.040894	-0.1059	-0.061188	0.079498	0.030365	0.011902	-0.067596	-0.012665	-0.069427	-0.02594	-0.007019	0.21439	0.17181	-0.001373	-0.008545
42.886	0.002899	0.14984	0.12238	-0.046082	-0.003815	0.008545	0.20645	0.012054	-0.1239	-0.059967	-0.04303	0.010529	0.34286	0.055237	0.43091	0.001984	0.075684	-0.000153	-0.069122	-0.088806	0.006561	0.003052	0.006714	-0.070496	0.005035	-0.071106	0.34744	-0.012817	0.37506	0.060577	-0.002441	-0.002289
42.887	-0.000916	0.14175	0.20828	-0.005646	0.036774	0.00473	0.17136	0.012054	-0.011292	-0.073242	0.021515	0	-0.12817	0.046997	-0.1561	0.006104	0.091248	0.015259	0.016785	0.035706	0.040436	-0.016327	-0.017242	-0.076752	0.001831	-0.055237	0.29419	-0.007019	0.046692	-0.07309	0	0.001068
42.888	0.002899	0.12421	0.12528	-0.016327	0.056	-0.00473	0.026855	0.020447	-0.018005	-0.098877	-0.01297	-0.000458	-0.60852	0.14435	-0.11963	0.017395	0.086975	0.014038	0.035706	0.22858	0.052643	0.007782	-0.02182	-0.096283	0.001068	-0.04364	-0.00061	-0.006561	-0.48431	-0.16953	-0.001831	0.006409
42.889	0.014496	0.11536	0.068054	-0.007172	0.03418	-0.027008	-0.1294	0.020142	0.079346	-0.12253	-0.063324	-0.001373	0.10986	0.10315	-0.038757	0.008392	0.10391	-0.005035	-0.062714	0.11063	0.12573	-0.005493	-0.006409	-0.14694	-0.005188	-0.05188	0.19775	0.002747	-0.59158	-0.069427	-0.001678	0.002136
